<svg width="40" height="37" viewBox="0 0 40 37" fill="none" xmlns="http://www.w3.org/2000/svg">
<g clip-path="url(#clip0_399_2234)">
<path d="M34.6875 18.8223C34.5217 18.8223 34.3628 18.89 34.2456 19.0106C34.1283 19.1311 34.0625 19.2946 34.0625 19.4651C34.0625 19.6356 34.1283 19.7991 34.2456 19.9197C34.3628 20.0403 34.5217 20.108 34.6875 20.108C34.7704 20.108 34.8499 20.1418 34.9085 20.2021C34.9671 20.2624 35 20.3442 35 20.4294V31.358C35 31.4432 34.9671 31.525 34.9085 31.5853C34.8499 31.6455 34.7704 31.6794 34.6875 31.6794H5.3125C5.22962 31.6794 5.15013 31.6455 5.09153 31.5853C5.03292 31.525 5 31.4432 5 31.358V20.4294C5 20.3442 5.03292 20.2624 5.09153 20.2021C5.15013 20.1418 5.22962 20.108 5.3125 20.108C5.47826 20.108 5.63723 20.0403 5.75444 19.9197C5.87165 19.7991 5.9375 19.6356 5.9375 19.4651C5.9375 19.2946 5.87165 19.1311 5.75444 19.0106C5.63723 18.89 5.47826 18.8223 5.3125 18.8223C4.8981 18.8223 4.50067 18.9916 4.20765 19.293C3.91462 19.5944 3.75 20.0032 3.75 20.4294V31.358C3.75 31.7842 3.91462 32.193 4.20765 32.4944C4.50067 32.7958 4.8981 32.9651 5.3125 32.9651H34.6875C35.1019 32.9651 35.4993 32.7958 35.7924 32.4944C36.0854 32.193 36.25 31.7842 36.25 31.358V20.4294C36.25 20.0032 36.0854 19.5944 35.7924 19.293C35.4993 18.9916 35.1019 18.8223 34.6875 18.8223Z" fill="#EAEAEA"/>
<path d="M8.12499 25.2497C7.95923 25.2497 7.80026 25.3174 7.68305 25.438C7.56584 25.5585 7.49999 25.722 7.49999 25.8925C7.49999 26.063 7.56584 26.2265 7.68305 26.3471C7.80026 26.4677 7.95923 26.5354 8.12499 26.5354H31.875C32.0408 26.5354 32.1997 26.4677 32.3169 26.3471C32.4341 26.2265 32.5 26.063 32.5 25.8925C32.5 25.722 32.4341 25.5585 32.3169 25.438C32.1997 25.3174 32.0408 25.2497 31.875 25.2497H29.4844C31.1282 23.3649 32.2062 21.0308 32.588 18.5294C32.9698 16.028 32.639 13.4664 31.6357 11.1542C30.6324 8.84201 28.9995 6.87819 26.9343 5.50011C24.8691 4.12203 22.4601 3.38867 19.9984 3.38867C17.5367 3.38867 15.1277 4.12203 13.0625 5.50011C10.9974 6.87819 9.36446 8.84201 8.36115 11.1542C7.35784 13.4664 7.02709 16.028 7.40887 18.5294C7.79065 21.0308 8.86862 23.3649 10.5125 25.2497H8.12499Z" fill="#EAEAEA"/>
<path d="M26.0031 16.1825L20.4406 10.4643C20.3235 10.3445 20.1651 10.2773 20 10.2773C19.8349 10.2773 19.6765 10.3445 19.5594 10.4643L13.9969 16.1825C13.9388 16.2422 13.8927 16.3131 13.8612 16.3911C13.8298 16.4692 13.8136 16.5528 13.8136 16.6373C13.8136 16.7218 13.8298 16.8055 13.8612 16.8835C13.8927 16.9615 13.9388 17.0324 13.9969 17.0921L19.5594 22.8104C19.6765 22.9301 19.8349 22.9973 20 22.9973C20.1651 22.9973 20.3235 22.9301 20.4406 22.8104L26.0031 17.0921C26.0612 17.0324 26.1073 16.9615 26.1388 16.8835C26.1702 16.8055 26.1864 16.7218 26.1864 16.6373C26.1864 16.5528 26.1702 16.4692 26.1388 16.3911C26.1073 16.3131 26.0612 16.2422 26.0031 16.1825ZM20 21.4475L15.3125 16.6261L20 11.8046L24.6875 16.6261L20 21.4475Z" fill="#050505"/>
</g>
<defs>
<clipPath id="clip0_399_2234">
<rect width="40" height="36" fill="white" transform="translate(0 0.5)"/>
</clipPath>
</defs>
</svg>
