<svg width="31" height="31" viewBox="0 0 31 31" fill="none" xmlns="http://www.w3.org/2000/svg">
<path d="M15.3318 27.4607H3.76393C3.47355 27.4607 3.23836 27.2163 3.23836 26.9147V10.13C3.23836 9.82833 3.47355 9.58398 3.76393 9.58398C4.0543 9.58398 4.28949 9.82833 4.28949 10.13V26.3688H15.3316C15.622 26.3688 15.8572 26.6132 15.8572 26.9148C15.8572 27.2165 15.6222 27.4607 15.3318 27.4607Z" fill="#EAEAEA"/>
<path d="M23.6988 15.1647C23.4085 15.1647 23.1733 14.9203 23.1733 14.6187V10.1359C23.1733 9.83419 23.4085 9.58984 23.6988 9.58984C23.9892 9.58984 24.2244 9.83419 24.2244 10.1359V14.6187C24.2244 14.9203 23.9892 15.1647 23.6988 15.1647Z" fill="#EAEAEA"/>
<path d="M26.152 8.56051L14.6143 0.441275C14.0783 0.0645277 13.3832 0.0631648 12.8458 0.441275L1.30686 8.56051C0.588153 9.0683 0.398949 10.088 0.886407 10.8361C1.12291 11.1978 1.48029 11.4421 1.89419 11.5254C1.99405 11.5459 2.09522 11.5555 2.19507 11.5555C2.50779 11.5555 2.8126 11.4585 3.07672 11.2729L13.73 3.77603L24.3833 11.2729C24.6461 11.4572 24.9509 11.5541 25.2663 11.5541C25.7905 11.5541 26.2793 11.2852 26.5723 10.8361C27.0585 10.088 26.8707 9.0683 26.152 8.56051Z" fill="#EAEAEA"/>
<path d="M23.7776 16.4199C20.661 16.4199 17.5024 17.3099 17.5024 19.0026V27.9902C17.5024 29.6884 20.661 30.5729 23.7776 30.5729C26.8941 30.5729 30.0477 29.6884 30.0477 27.9902V19.0026C30.0477 17.3099 26.8943 16.4199 23.7776 16.4199ZM28.1241 27.1164C26.9626 27.5423 25.4227 27.7771 23.7776 27.7771C22.122 27.7771 20.5769 27.5423 19.4257 27.1109C19.1524 27.0072 19.0105 26.6905 19.1104 26.412C19.2102 26.1226 19.5098 25.9752 19.7831 26.0789C20.8079 26.4666 22.2638 26.685 23.7774 26.685C25.2805 26.685 26.7364 26.4666 27.7663 26.0844C28.0396 25.9861 28.3445 26.1335 28.4391 26.4175C28.5389 26.7014 28.3974 27.0126 28.1241 27.1164ZM28.1241 23.9167C26.9626 24.3481 25.4227 24.5828 23.7776 24.5828C22.122 24.5828 20.5769 24.3426 19.4257 23.9112C19.1524 23.8075 19.0105 23.4962 19.1104 23.2123C19.2102 22.9284 19.5098 22.7809 19.7831 22.8847C20.8079 23.2724 22.2638 23.4908 23.7774 23.4908C25.2805 23.4908 26.7364 23.2724 27.7663 22.8901C28.0396 22.7864 28.3445 22.9338 28.4391 23.2178C28.5389 23.5017 28.397 23.8184 28.1237 23.9167L28.1241 23.9167ZM28.1241 20.5204C26.9626 20.9518 25.4227 21.1866 23.7776 21.1866C22.122 21.1866 20.5769 20.9463 19.4257 20.5149C19.1524 20.4112 19.0105 20.1 19.1104 19.816C19.2102 19.5321 19.5098 19.3847 19.7831 19.4884C20.8079 19.8761 22.2638 20.0945 23.7774 20.0945C25.2805 20.0945 26.7364 19.8761 27.7663 19.4939C28.0396 19.3901 28.3445 19.5375 28.4391 19.8215C28.5389 20.1054 28.397 20.4221 28.1237 20.5204L28.1241 20.5204Z" fill="#EAEAEA"/>
<path d="M14.3964 16.4199H7.33276C7.04369 16.4199 6.80719 16.6656 6.80719 16.9659V26.9146C6.80719 27.2149 7.04369 27.4606 7.33276 27.4606H14.3964C14.6855 27.4606 14.922 27.2149 14.922 26.9146V16.9659C14.922 16.6656 14.6855 16.4199 14.3964 16.4199ZM7.85816 26.3685V17.512H13.8707V26.3685H7.85816Z" fill="#EAEAEA"/>
<path d="M13.7287 7.82617C12.131 7.82617 10.8276 9.18031 10.8276 10.8457C10.8276 12.511 12.131 13.8597 13.7287 13.8597C15.3264 13.8597 16.6351 12.5056 16.6351 10.8457C16.6351 9.18576 15.3317 7.82617 13.7287 7.82617ZM13.7287 12.7678C12.7091 12.7678 11.8787 11.9051 11.8787 10.8458C11.8787 9.78106 12.7091 8.91836 13.7287 8.91836C14.7536 8.91836 15.5839 9.78109 15.5839 10.8458C15.5839 11.9051 14.7535 12.7678 13.7287 12.7678Z" fill="#EAEAEA"/>
</svg>
