<svg width="58" height="58" viewBox="0 0 58 58" fill="none" xmlns="http://www.w3.org/2000/svg">
<g clip-path="url(#clip0_697_7031)">
<path d="M29 0C13.0072 0 0 13.0072 0 29C0 44.9928 13.0072 58 29 58C44.9928 58 58 44.9928 58 29C58 13.0072 44.9928 0 29 0ZM29 13.05C35.2362 13.05 40.3115 18.125 40.3115 24.3615C40.3115 30.5976 35.2365 35.6729 29 35.6729C22.7635 35.6729 17.6885 30.5979 17.6885 24.3615C17.6885 18.1253 22.7635 13.05 29 13.05ZM29 55.1C19.8636 55.1 11.8182 50.379 7.15648 43.2535C9.78743 41.3844 13.0074 40.2742 16.4742 40.2742H41.4954C44.976 40.2742 48.2016 41.39 50.8414 43.2676C46.1713 50.3874 38.1314 55.0996 29.0036 55.0996L29 55.1Z" fill="#767676"/>
</g>
<defs>
<clipPath id="clip0_697_7031">
<rect width="58" height="58" fill="white"/>
</clipPath>
</defs>
</svg>
